HIERARCHY
ROOT Hips
{
	OFFSET -3.958830 18.904000 13.208200
	CHANNELS 6 Xposition Yposition Zposition Zrotation Yrotation Xrotation 
	JOINT LHipJoint
	{
		OFFSET 0.000000 0.000000 0.000000
		CHANNELS 3 Zrotation Yrotation Xrotation
		JOINT LeftUpLeg
		{
			OFFSET 1.800000 -1.400000 0.085000
			CHANNELS 3 Zrotation Yrotation Xrotation
			JOINT LeftLeg
			{
				OFFSET 2.215000 -6.000000 0.000000
				CHANNELS 3 Zrotation Yrotation Xrotation
				JOINT LeftFoot
				{
					OFFSET 2.500000 -6.900000 0.000000
					CHANNELS 3 Zrotation Yrotation Xrotation
					JOINT LeftToeBase
					{
						OFFSET 0.200000 -0.500000 1.950000
						CHANNELS 3 Zrotation Yrotation Xrotation
						End Site
						{
							OFFSET 0.000000 0.000000 0.000000
						}
					}
				}
			}
		}
	}
	JOINT RHipJoint
	{
		OFFSET 0.000000 0.000000 0.000000
		CHANNELS 3 Zrotation Yrotation Xrotation
		JOINT RightUpLeg
		{
			OFFSET -1.800000 -1.400000 0.085000
			CHANNELS 3 Zrotation Yrotation Xrotation
			JOINT RightLeg
			{
				OFFSET -2.215000 -6.000000 0.000000
				CHANNELS 3 Zrotation Yrotation Xrotation
				JOINT RightFoot
				{
					OFFSET -2.500000 -6.900000 0.000000
					CHANNELS 3 Zrotation Yrotation Xrotation
					JOINT RightToeBase
					{
						OFFSET -0.200000 -0.500000 1.950000
						CHANNELS 3 Zrotation Yrotation Xrotation
						End Site
						{
							OFFSET 0.000000 0.000000 0.000000
						}
					}
				}
			}
		}
	}
	JOINT LowerBack
	{
		OFFSET 0.000000 0.000000 0.000000
		CHANNELS 3 Zrotation Yrotation Xrotation
		JOINT Spine
		{
			OFFSET -0.087000 1.940000 -0.288900
			CHANNELS 3 Zrotation Yrotation Xrotation
			JOINT Spine1
			{
				OFFSET 0.000000 1.950000 0.060000
				CHANNELS 3 Zrotation Yrotation Xrotation
				JOINT Neck
				{
					OFFSET 0.000000 0.000000 0.000000
					CHANNELS 3 Zrotation Yrotation Xrotation
					JOINT Neck1
					{
						OFFSET 0.000000 1.600000 0.340000
						CHANNELS 3 Zrotation Yrotation Xrotation
						JOINT Head
						{
							OFFSET 0.000000 1.667000 -0.240000
							CHANNELS 3 Zrotation Yrotation Xrotation
							End Site
							{
								OFFSET 0.000000 0.000000 0.000000
							}
						}
					}
				}
				JOINT LeftShoulder
				{
					OFFSET 0.000000 0.000000 0.000000
					CHANNELS 3 Zrotation Yrotation Xrotation
					JOINT LeftArm
					{
						OFFSET 2.700000 1.550000 -0.730000
						CHANNELS 3 Zrotation Yrotation Xrotation
						JOINT LeftForeArm
						{
							OFFSET 5.450000 0.000000 0.000000
							CHANNELS 3 Zrotation Yrotation Xrotation
							JOINT LeftHand
							{
								OFFSET 3.450000 0.000000 0.000000
								CHANNELS 3 Zrotation Yrotation Xrotation
								JOINT LeftHandIndex1
								{
									OFFSET 0.750000 0.000000 0.000000
									CHANNELS 3 Zrotation Yrotation Xrotation
									End Site
									{
										OFFSET 0.000000 0.000000 0.000000
									}
								}
							}
						}
					}
				}
				JOINT RightShoulder
				{
					OFFSET 0.000000 0.000000 0.000000
					CHANNELS 3 Zrotation Yrotation Xrotation
					JOINT RightArm
					{
						OFFSET -2.700000 1.550000 -0.730000
						CHANNELS 3 Zrotation Yrotation Xrotation
						JOINT RightForeArm
						{
							OFFSET -5.450000 0.000000 0.000000
							CHANNELS 3 Zrotation Yrotation Xrotation
							JOINT RightHand
							{
								OFFSET -3.450000 0.000000 0.000000
								CHANNELS 3 Zrotation Yrotation Xrotation
								JOINT RightHandIndex1
								{
									OFFSET -0.750000 0.000000 0.000000
									CHANNELS 3 Zrotation Yrotation Xrotation
									End Site
									{
										OFFSET 0.000000 0.000000 0.000000
									}
								}
							}
						}
					}
				}
			}
		}
	}
}
MOTION
Frames: 10
Frame Time: 0.016667
-1.297490 16.669130 -1.912360 5.120699 -1.862435 0.022906 -15.154110 11.574693 4.352167 23.548589 -5.164795 -26.811187 -22.628375 14.697686 30.164668 0.133518 8.654088 1.260369 0.781490 0.704540 0.536960 18.638769 -8.612021 3.882174 -24.352231 2.744307 -42.417932 10.608653 -19.193851 54.111155 -1.661130 -9.445637 0.860889 0.312260 -0.114250 0.304990 -4.140876 -2.894678 -8.955623 32.355322 -12.467923 33.484407 -5.209831 -2.609821 2.923880 2.745517 -9.416607 -11.924971 -28.604988 8.385554 49.239792 -4.782250 -0.847790 -24.628840 -28.461180 -22.468120 1.888647 -36.622245 -26.438803 2.459229 -107.578866 -49.055872 53.845776 -3.406445 3.417027 0.795900 -0.251300 0.512680 0.216950 22.808268 26.696510 8.587541 42.287809 9.318751 -12.066395 61.144576 35.876723 11.786655 2.162308 -1.631548 0.047210 0.338990 -0.150920 -0.091490 
-1.321800 16.665650 -1.878590 5.286953 -1.926049 -0.335200 -15.140677 11.657080 4.267124 23.390416 -5.003620 -26.056958 -22.111344 14.729684 30.484769 0.150685 8.631035 1.261095 0.788340 0.725220 0.527590 18.638409 -8.681328 3.845575 -24.258072 2.620926 -42.022429 10.241946 -19.210704 54.530825 -1.672592 -9.500894 0.843838 0.317030 -0.124430 0.311240 -4.156897 -2.905611 -8.903898 32.641915 -12.296360 32.534999 -4.990815 -2.746211 2.985905 2.646504 -9.481893 -11.868851 -28.543953 8.164423 48.664059 -4.823350 -0.885160 -24.555860 -28.410070 -22.304725 1.948734 -37.312222 -26.657183 2.955544 -107.435639 -48.729853 53.536017 -3.397628 3.446543 0.777810 -0.251060 0.516160 0.221670 22.947501 26.500911 8.545578 42.471768 9.286324 -11.816294 61.331546 35.460613 11.690671 2.168870 -1.652847 0.066890 0.317470 -0.160080 -0.080380 
-1.345780 16.670450 -1.837310 5.434855 -1.951431 -0.867386 -15.113937 11.779390 4.141733 23.013954 -4.817285 -25.071211 -21.217859 14.662943 30.904385 0.131740 8.595645 1.274020 0.773930 0.712090 0.509060 18.640304 -8.819411 3.774565 -24.006351 2.483867 -41.301097 9.622778 -19.012600 54.841429 -1.659699 -9.500053 0.843763 0.316770 -0.108470 0.310190 -4.192889 -2.871648 -8.816179 32.776810 -11.966800 31.372227 -4.717380 -2.888374 3.216549 2.404862 -9.572637 -11.728867 -28.374777 7.851967 47.736530 -4.578610 -0.963910 -24.504680 -28.141045 -22.116757 1.996229 -38.100827 -27.182979 3.739468 -107.385203 -48.780351 53.768609 -3.418319 3.444197 0.769610 -0.239310 0.499690 0.217010 23.136616 26.215430 8.437993 42.373589 9.408440 -11.380672 61.647640 34.757835 11.553693 2.162011 -1.653095 0.058820 0.320710 -0.144180 -0.079550 
-1.366470 16.681610 -1.791340 5.521714 -1.882213 -1.396098 -15.067594 11.899956 3.980575 22.442246 -4.591413 -24.060065 -19.994531 14.457678 31.312955 0.111389 8.500585 1.318997 0.764870 0.700600 0.488260 18.657776 -9.014144 3.691247 -23.738095 2.309964 -40.387014 9.045654 -18.752858 54.906274 -1.636281 -9.475071 0.856929 0.316910 -0.081460 0.314470 -4.277789 -2.738272 -8.698266 33.045977 -11.557118 29.616248 -4.558392 -3.110643 3.793480 2.079837 -9.610022 -11.652525 -28.000082 7.464027 46.763080 -4.325050 -1.001080 -23.717050 -27.694260 -22.150471 2.232437 -38.878549 -27.795200 4.626500 -107.498202 -49.353982 54.696474 -3.446581 3.449633 0.749390 -0.215940 0.474810 0.226710 23.315320 26.041715 8.369833 42.538767 9.693743 -10.915909 61.473809 34.536570 11.529028 2.152810 -1.672349 0.053620 0.315750 -0.139440 -0.073130 
-1.384740 16.701250 -1.739280 5.524992 -1.783202 -1.975238 -15.010710 12.010173 3.802886 21.876557 -4.309074 -22.901941 -18.753212 14.219515 31.620627 0.095139 8.380978 1.371107 0.764180 0.704100 0.474330 18.685237 -9.247111 3.583857 -23.396889 2.153241 -39.215327 8.519078 -18.431525 54.794340 -1.607062 -9.417634 0.874836 0.324400 -0.059640 0.315440 -4.392904 -2.529846 -8.550625 33.429884 -11.109470 27.656068 -4.482719 -3.370853 4.548774 1.638985 -9.718777 -11.466595 -27.644350 7.050998 45.373041 -3.903420 -1.005310 -23.137720 -27.021895 -22.019490 2.447288 -39.801104 -28.643233 5.793302 -108.326297 -50.271871 56.666682 -3.475203 3.458039 0.720460 -0.195860 0.450320 0.233900 23.477224 25.673011 8.193887 42.790556 10.161243 -10.284919 60.908332 34.274878 11.441796 2.150099 -1.694787 0.055110 0.308450 -0.140400 -0.064030 
-1.398020 16.731030 -1.683640 5.403323 -1.244825 -2.882880 -14.948699 12.158129 3.613877 21.272479 -4.072195 -21.587754 -17.258273 13.854297 32.033774 0.050425 8.255309 1.420510 0.762010 0.694960 0.467180 18.708172 -9.547939 3.404468 -22.961110 1.816678 -37.276106 8.050407 -18.069348 54.301032 -1.568749 -9.302899 0.904096 0.330720 -0.036640 0.322280 -4.510527 -2.312883 -8.361197 33.918341 -10.760571 25.562475 -4.472017 -3.786946 5.591393 1.218163 -9.698419 -11.344352 -27.096888 6.684751 44.251616 -3.423660 -0.941920 -22.845970 -25.897663 -22.120206 2.779945 -40.937336 -29.753650 7.071939 -109.356934 -51.481083 59.004580 -3.515754 3.449063 0.708010 -0.175270 0.426130 0.231500 23.170724 25.355022 8.043494 43.407967 10.683892 -9.784353 59.942428 34.221757 11.294654 2.139011 -1.699130 0.047680 0.307010 -0.127220 -0.067140 
-1.413840 16.765580 -1.624920 5.339281 -0.514118 -3.941626 -14.887466 12.336946 3.407355 20.620296 -3.791665 -20.077735 -15.588588 13.362876 32.297763 -0.016228 8.110702 1.485855 0.742590 0.654180 0.453980 18.724365 -9.867621 3.219787 -22.646635 1.428773 -35.115374 7.524341 -17.713685 53.857512 -1.531739 -9.211568 0.925372 0.326310 0.001770 0.341250 -4.619019 -2.111988 -8.171422 34.052430 -10.325503 23.453727 -4.547435 -4.221211 6.676933 0.899419 -9.472380 -11.253297 -25.956182 6.020101 43.278836 -3.358710 -0.860750 -22.299260 -25.119670 -22.498769 3.190122 -41.457305 -30.606159 8.266537 -111.227073 -52.573028 62.054764 -3.572604 3.428158 0.706870 -0.141000 0.396530 0.227560 23.017273 25.207535 7.988337 44.134340 11.160734 -9.326319 59.054593 34.455234 11.292841 2.117107 -1.699308 0.024580 0.307890 -0.100520 -0.077670 
-1.425090 16.802600 -1.565440 5.363123 0.210514 -4.991205 -14.826722 12.500982 3.191851 19.900213 -3.452520 -18.460226 -14.007614 12.845815 32.293283 -0.086903 7.938124 1.567384 0.711140 0.608310 0.437420 18.743789 -10.188060 3.039003 -22.482219 1.027972 -32.856161 7.178336 -17.353213 53.115465 -1.475495 -9.092921 0.961525 0.326200 0.042920 0.341700 -4.735243 -1.878941 -7.970773 33.920294 -9.735426 21.209255 -4.591834 -4.644068 7.911483 0.529603 -9.202308 -10.998630 -24.566569 5.068501 41.963856 -3.736860 -0.803980 -21.570310 -24.148429 -22.596099 3.527991 -42.118648 -31.731199 9.871803 -113.335597 -54.167897 66.128595 -3.642704 3.377088 0.691660 -0.099230 0.353620 0.218350 22.755877 24.766574 7.818922 44.849377 11.841879 -8.622107 58.364501 35.243850 11.709503 2.097212 -1.697709 -0.009920 0.319690 -0.071070 -0.092130 
-1.430230 16.839400 -1.503500 5.430996 0.892141 -6.032269 -14.768007 12.633491 2.969531 19.132416 -3.030834 -16.703696 -12.623808 12.345450 31.985590 -0.131050 7.726334 1.662714 0.703270 0.598680 0.422360 18.769262 -10.495590 2.873898 -22.456296 0.690791 -30.640424 6.929474 -16.998870 52.318715 -1.422464 -8.995508 0.991599 0.337730 0.075660 0.350050 -4.860877 -1.600924 -7.761228 33.614517 -9.011854 18.794681 -4.638520 -5.041745 9.305530 0.075663 -8.813025 -10.664433 -22.858060 4.041678 40.460727 -3.850780 -0.789260 -20.471830 -22.758652 -22.458313 3.890233 -43.033007 -33.002770 11.720507 -115.799003 -56.239318 71.200258 -3.699153 3.345009 0.651680 -0.055410 0.311230 0.221070 22.246824 24.061269 7.519027 45.585102 12.840662 -7.593576 57.402101 36.526205 12.361269 2.085876 -1.730666 -0.018140 0.304350 -0.064040 -0.092360 
-1.437230 16.870750 -1.439490 5.611199 1.545112 -7.023173 -14.721916 12.768064 2.767361 18.358126 -2.612400 -14.886932 -11.386230 11.842774 31.451066 -0.173482 7.524474 1.770865 0.683550 0.571980 0.401430 18.785273 -10.783311 2.708382 -22.444573 0.319716 -28.522394 6.424191 -16.550022 51.630827 -1.368375 -8.898371 1.024564 0.344430 0.125230 0.358860 -4.958066 -1.365998 -7.558821 32.855048 -8.082065 16.419075 -4.431259 -5.213652 10.529818 -0.440111 -8.300479 -10.325791 -21.035725 2.850458 39.095134 -4.034930 -0.875870 -19.090760 -21.072420 -22.016524 4.200158 -44.439437 -34.355732 13.901956 -118.720923 -58.453203 77.078772 -3.756950 3.277694 0.613650 -0.003890 0.265050 0.229730 21.569928 23.135790 7.178797 46.788312 13.677210 -6.508437 56.312896 37.223756 12.654554 2.071781 -1.758015 -0.038620 0.302140 -0.053140 -0.091100 
